<svg width="1561" height="408" viewBox="0 0 1561 408" fill="none" xmlns="http://www.w3.org/2000/svg" stroke-width="4">
<path d="M144.5 142.093C144.5 109.5 144.5 61.5407 0.5 61.5407V0.5H359.5V61.5407H211.5L225.5 142.093V405.5H144.5V142.093Z" stroke="black"/>
<path d="M291.5 403.5V109.5H343.5C370.5 109.5 329.5 220.5 411.5 220.5C493.5 220.5 511.5 332.5 511.5 403.5H448.5C449.5 367.167 432.7 292.3 357.5 283.5V403.5H334.5H291.5Z" stroke="black"/>
<path d="M675.5 403.5V193.5H727.5C754.5 193.5 731.5 207.229 818.5 210.5C905.5 213.771 895.5 332.5 895.5 403.5H832.5C833.5 367.167 839.5 220.494 741.5 280.5V403.5H718.5H675.5Z" stroke="black"/>
<path d="M620 192.381V405H557V175.154L620 192.381Z" stroke="black"/>
<path d="M943.5 405.5V95.5H1001.5V233.5L1127.5 204.5V251.5L1052 271.5L1140 405.5H1067.5L1001.5 297V405.5H943.5Z" stroke="black"/>
<path d="M1397.5 406.5V203.5H1448.5V237.5L1489.5 227.5H1560.5V274.5C1547.5 276.5 1542.5 274.5 1489.5 274.5C1440.7 274.5 1448.5 357.585 1448.5 406.585C1429.83 406.918 1397.5 407.3 1397.5 406.5Z" stroke="black"/>
<path d="M1349 307C1345.89 307 1289.67 309.001 1212 307C1212 408.057 1293.55 362.534 1345.58 362.534V404.558H1340.15C1319.95 405.225 1268.69 406.159 1225.2 404.558C1181.7 402.957 1168.5 376.542 1168.5 308.503C1168.5 260.476 1174.71 200.442 1262.48 200.442C1350.24 200.442 1352.11 307 1349 307Z" stroke="black"/>
<path d="M1213.5 277.5C1226.5 216.668 1304.5 232.23 1304.5 277.5L1213.5 277.5Z" stroke="black"/>
<circle cx="588.5" cy="102.5" r="36.5" stroke="black"/>
<path d="M548.5 99C522.5 105 511.667 113 512.5 116C515.139 125.5 566.5 119.5 591.5 115C652.7 103 665.667 93.0001 664.5 89.5001C663 85.0001 640.5 84 625 85.5" stroke="black"/>
<path d="M534.5 99C554 93 547.024 65.7181 583 61C613.5 57.0001 619.5 81 635.5 81" stroke="black"/>
<path d="M551 124.5C552.5 128.5 569.717 150.367 596 145.5C623 140.5 629.5 117 631.5 110" stroke="black"/>
</svg>
