<svg width="1583" height="406" viewBox="0 0 1583 406" fill="none" xmlns="http://www.w3.org/2000/svg">
<path d="M144.5 61.5407H0.5V0.5H359.5V19V61.5407H225.5V142.093V405.5H144.5V61.5407Z" stroke="black" fill="white"/>
<path d="M336.5 403.5H296V107.5H359.5V196.5H513.5V237.5V403.5H450.5V259H359.5V403.5H336.5Z" stroke="black" fill="white"/>
<path d="M683.5 405.5V195.5H859.5L897.5 233V405.5H831.5V259H749.5V405.5H683.5Z" stroke="black" fill="white"/>
<path d="M626 196V405H567V196H626Z" stroke="black" fill="white"/>
<path d="M597.21 53.6171C544.192 117.276 560.5 144.559 597.21 144.559C633.921 144.559 646.5 114.5 597.21 53.6171Z" stroke="black" fill="white"/>
<path d="M954.5 405.5V95.5H1012.5V233.5L1144.5 196V244L1061.5 270.5L1151 405.5H1078.5L1012.5 297.5V405.5H954.5Z" stroke="black" fill="white"/>
<path d="M1421.5 405.01V218.722L1472.5 195.5H1582.5V242.459H1472.5V405.098C1453.83 405.442 1421.5 405.836 1421.5 405.01Z" stroke="black" fill="white"/>
<path d="M1368.5 405.5H1192.5V219.197V195.5H1229.1H1368.5V312.397H1242.64V357.914H1278.24H1368.5V405.5Z" stroke="black" fill="white"/>
<path d="M1242.5 274.5H1320.5V250.409V239.5H1242.5V250.409V274.5Z" stroke="black" fill="#0a0a2a"/>
</svg>
